<?xml version="1.0" encoding="utf-8"?>
<!-- Generator: Adobe Illustrator 23.0.4, SVG Export Plug-In . SVG Version: 6.00 Build 0)  -->
<svg version="1.1" id="Layer_1" xmlns="http://www.w3.org/2000/svg" xmlns:xlink="http://www.w3.org/1999/xlink" x="0px" y="0px"
	 viewBox="0 0 1443 900" style="enable-background:new 0 0 1443 900;" xml:space="preserve">
<style type="text/css">
	
		.st0{clip-path:url(#SVGID_2_);fill:#FFFFFF;stroke:#F68C1F;stroke-width:7;stroke-linecap:round;stroke-linejoin:round;stroke-miterlimit:10;}
	
		.st1{clip-path:url(#SVGID_4_);fill:#FFFFFF;stroke:#F68C1F;stroke-width:7;stroke-linecap:round;stroke-linejoin:round;stroke-miterlimit:10;}
</style>
<g>
	<defs>
		<rect id="SVGID_1_" x="977.3" y="2" width="465.3" height="514.6"/>
	</defs>
	<clipPath id="SVGID_2_">
		<use xlink:href="#SVGID_1_"  style="overflow:visible;"/>
	</clipPath>
	<line class="st0" x1="361.5" y1="-158.9" x2="1238" y2="810.6"/>
	<line class="st0" x1="404" y1="-158.9" x2="1280.5" y2="810.6"/>
	<line class="st0" x1="446.6" y1="-158.9" x2="1323.1" y2="810.6"/>
	<line class="st0" x1="489.1" y1="-158.9" x2="1365.6" y2="810.6"/>
	<line class="st0" x1="531.6" y1="-158.9" x2="1408.1" y2="810.6"/>
	<line class="st0" x1="574.2" y1="-158.9" x2="1450.7" y2="810.6"/>
	<line class="st0" x1="616.7" y1="-158.9" x2="1493.2" y2="810.6"/>
	<line class="st0" x1="659.2" y1="-158.9" x2="1535.7" y2="810.6"/>
	<line class="st0" x1="701.7" y1="-158.9" x2="1578.2" y2="810.6"/>
	<line class="st0" x1="744.3" y1="-158.9" x2="1620.8" y2="810.6"/>
	<line class="st0" x1="786.8" y1="-158.9" x2="1663.3" y2="810.6"/>
	<line class="st0" x1="829.3" y1="-158.9" x2="1705.8" y2="810.6"/>
	<line class="st0" x1="871.9" y1="-158.9" x2="1748.4" y2="810.6"/>
	<line class="st0" x1="914.4" y1="-158.9" x2="1790.9" y2="810.6"/>
	<line class="st0" x1="956.9" y1="-158.9" x2="1833.4" y2="810.6"/>
	<line class="st0" x1="999.4" y1="-158.9" x2="1875.9" y2="810.6"/>
	<line class="st0" x1="1042" y1="-158.9" x2="1918.5" y2="810.6"/>
	<line class="st0" x1="1084.5" y1="-158.9" x2="1961" y2="810.6"/>
	<line class="st0" x1="1127" y1="-158.9" x2="2003.5" y2="810.6"/>
	<line class="st0" x1="1169.5" y1="-158.9" x2="2046" y2="810.6"/>
	<line class="st0" x1="1212.1" y1="-158.9" x2="2088.6" y2="810.6"/>
	<line class="st0" x1="1254.6" y1="-158.9" x2="2131.1" y2="810.6"/>
	<line class="st0" x1="1297.1" y1="-158.9" x2="2173.6" y2="810.6"/>
</g>
<g>
	<defs>
		<rect id="SVGID_3_" x="2" y="210.2" width="621.9" height="687.8"/>
	</defs>
	<clipPath id="SVGID_4_">
		<use xlink:href="#SVGID_3_"  style="overflow:visible;"/>
	</clipPath>
	<line class="st1" x1="-821.1" y1="-4.9" x2="350.5" y2="1291"/>
	<line class="st1" x1="-764.3" y1="-4.9" x2="407.3" y2="1291"/>
	<line class="st1" x1="-707.4" y1="-4.9" x2="464.2" y2="1291"/>
	<line class="st1" x1="-650.6" y1="-4.9" x2="521" y2="1291"/>
	<line class="st1" x1="-593.7" y1="-4.9" x2="577.9" y2="1291"/>
	<line class="st1" x1="-536.9" y1="-4.9" x2="634.7" y2="1291"/>
	<line class="st1" x1="-480.1" y1="-4.9" x2="691.5" y2="1291"/>
	<line class="st1" x1="-423.2" y1="-4.9" x2="748.4" y2="1291"/>
	<line class="st1" x1="-366.4" y1="-4.9" x2="805.2" y2="1291"/>
	<line class="st1" x1="-309.5" y1="-4.9" x2="862.1" y2="1291"/>
	<line class="st1" x1="-252.7" y1="-4.9" x2="918.9" y2="1291"/>
	<line class="st1" x1="-195.8" y1="-4.9" x2="975.8" y2="1291"/>
	<line class="st1" x1="-139" y1="-4.9" x2="1032.6" y2="1291"/>
	<line class="st1" x1="-82.1" y1="-4.9" x2="1089.5" y2="1291"/>
	<line class="st1" x1="-25.3" y1="-4.9" x2="1146.3" y2="1291"/>
	<line class="st1" x1="31.6" y1="-4.9" x2="1203.2" y2="1291"/>
	<line class="st1" x1="88.4" y1="-4.9" x2="1260" y2="1291"/>
	<line class="st1" x1="145.3" y1="-4.9" x2="1316.9" y2="1291"/>
	<line class="st1" x1="202.1" y1="-4.9" x2="1373.7" y2="1291"/>
	<line class="st1" x1="258.9" y1="-4.9" x2="1430.5" y2="1291"/>
	<line class="st1" x1="315.8" y1="-4.9" x2="1487.4" y2="1291"/>
	<line class="st1" x1="372.6" y1="-4.9" x2="1544.2" y2="1291"/>
	<line class="st1" x1="429.5" y1="-4.9" x2="1601.1" y2="1291"/>
</g>
</svg>
