<?xml version="1.0" encoding="utf-8"?>
<!-- Generator: Adobe Illustrator 23.0.4, SVG Export Plug-In . SVG Version: 6.00 Build 0)  -->
<svg version="1.1" xmlns="http://www.w3.org/2000/svg" xmlns:xlink="http://www.w3.org/1999/xlink" x="0px" y="0px"
	 viewBox="0 0 1660 1129" style="enable-background:new 0 0 1660 1129;" xml:space="preserve">
<style type="text/css">
	.st0{opacity:0.2;fill:#F68C1F;}
	.st1{display:none;}
	.st2{display:inline;}
	.st3{fill:#F68C1F;}
	.st4{fill:#FFFFFF;}
	.st5{fill:#D6E5E1;}
	.st6{fill:url(#SVGID_1_);}
	.st7{fill:#FFFFFF;stroke:#FFFFFF;stroke-width:2.1495;stroke-linecap:round;stroke-linejoin:round;stroke-miterlimit:10;}
	.st8{fill:#FFFFFF;stroke:#FFFFFF;stroke-width:0.8672;stroke-miterlimit:10;}
	.st9{fill:none;stroke:#FFFFFF;stroke-width:3;stroke-miterlimit:10;}
	.st10{font-family:'FilsonProRegular';}
	.st11{font-size:18.0472px;}
</style>
<g id="Layer_3">
	<path class="st0" d="M576,44c804-108,1192.2,87,1031,87C535,26,933,412,996,483s178.3,159.2,134,325c-21.2,79.1-160,200-469,254
		s-510,6-599-56c-53.3-37.1,143.3-71.3,274-120s210-88,299-143s184-163,88-233S375,390,276,307S263,83,576,44z"/>
</g>
<g id="Layer_2" class="st1">
	<g class="st2">
		<circle class="st3" cx="563.4" cy="675.3" r="6.7"/>
		<circle class="st3" cx="601.6" cy="671.3" r="6.7"/>
		<circle class="st3" cx="639.9" cy="667.2" r="6.7"/>
		<circle class="st3" cx="678.1" cy="663.2" r="6.7"/>
		<circle class="st3" cx="716.4" cy="659.2" r="6.7"/>
		<circle class="st3" cx="754.7" cy="655.2" r="6.7"/>
		<circle class="st3" cx="792.9" cy="651.1" r="6.7"/>
		<circle class="st3" cx="831.2" cy="647.1" r="6.7"/>
		<circle class="st3" cx="869.5" cy="643.1" r="6.7"/>
		<circle class="st3" cx="907.7" cy="639.1" r="6.7"/>
		<circle class="st3" cx="946" cy="635" r="6.7"/>
		<circle class="st3" cx="984.3" cy="631" r="6.7"/>
		<circle class="st3" cx="1022.5" cy="627" r="6.7"/>
		<circle class="st3" cx="567.4" cy="713.6" r="6.7"/>
		<circle class="st3" cx="605.6" cy="709.5" r="6.7"/>
		<circle class="st3" cx="643.9" cy="705.5" r="6.7"/>
		<circle class="st3" cx="682.2" cy="701.5" r="6.7"/>
		<circle class="st3" cx="720.4" cy="697.5" r="6.7"/>
		<circle class="st3" cx="758.7" cy="693.4" r="6.7"/>
		<circle class="st3" cx="797" cy="689.4" r="6.7"/>
		<circle class="st3" cx="835.2" cy="685.4" r="6.7"/>
		<circle class="st3" cx="873.5" cy="681.4" r="6.7"/>
		<circle class="st3" cx="911.8" cy="677.3" r="6.7"/>
		<circle class="st3" cx="950" cy="673.3" r="6.7"/>
		<circle class="st3" cx="988.3" cy="669.3" r="6.7"/>
		<circle class="st3" cx="1026.6" cy="665.3" r="6.7"/>
		<circle class="st3" cx="571.4" cy="751.8" r="6.7"/>
		<circle class="st3" cx="609.7" cy="747.8" r="6.7"/>
		<circle class="st3" cx="647.9" cy="743.8" r="6.7"/>
		<circle class="st3" cx="686.2" cy="739.7" r="6.7"/>
		<circle class="st3" cx="724.5" cy="735.7" r="6.7"/>
		<circle class="st3" cx="762.7" cy="731.7" r="6.7"/>
		<circle class="st3" cx="801" cy="727.7" r="6.7"/>
		<circle class="st3" cx="839.3" cy="723.6" r="6.7"/>
		<circle class="st3" cx="877.5" cy="719.6" r="6.7"/>
		<circle class="st3" cx="915.8" cy="715.6" r="6.7"/>
		<circle class="st3" cx="954" cy="711.6" r="6.7"/>
		<circle class="st3" cx="992.3" cy="707.6" r="6.7"/>
		<circle class="st3" cx="1030.6" cy="703.5" r="6.7"/>
		<circle class="st3" cx="575.4" cy="790.1" r="6.7"/>
		<circle class="st3" cx="613.7" cy="786.1" r="6.7"/>
		<circle class="st3" cx="652" cy="782" r="6.7"/>
		<circle class="st3" cx="690.2" cy="778" r="6.7"/>
		<circle class="st3" cx="728.5" cy="774" r="6.7"/>
		<circle class="st3" cx="766.7" cy="770" r="6.7"/>
		<circle class="st3" cx="805" cy="765.9" r="6.7"/>
		<circle class="st3" cx="843.3" cy="761.9" r="6.7"/>
		<circle class="st3" cx="881.5" cy="757.9" r="6.7"/>
		<circle class="st3" cx="919.8" cy="753.9" r="6.7"/>
		<circle class="st3" cx="958.1" cy="749.8" r="6.7"/>
		<circle class="st3" cx="996.3" cy="745.8" r="6.7"/>
		<circle class="st3" cx="1034.6" cy="741.8" r="6.7"/>
		<circle class="st3" cx="579.5" cy="828.3" r="6.7"/>
		<circle class="st3" cx="617.7" cy="824.3" r="6.7"/>
		<circle class="st3" cx="656" cy="820.3" r="6.7"/>
		<circle class="st3" cx="694.2" cy="816.3" r="6.7"/>
		<circle class="st3" cx="732.5" cy="812.3" r="6.7"/>
		<circle class="st3" cx="770.8" cy="808.2" r="6.7"/>
		<circle class="st3" cx="809" cy="804.2" r="6.7"/>
		<circle class="st3" cx="847.3" cy="800.2" r="6.7"/>
		<circle class="st3" cx="885.6" cy="796.2" r="6.7"/>
		<circle class="st3" cx="923.8" cy="792.1" r="6.7"/>
		<circle class="st3" cx="962.1" cy="788.1" r="6.7"/>
		<circle class="st3" cx="1000.4" cy="784.1" r="6.7"/>
		<circle class="st3" cx="1038.6" cy="780.1" r="6.7"/>
		<circle class="st3" cx="583.5" cy="866.6" r="6.7"/>
		<circle class="st3" cx="621.7" cy="862.6" r="6.7"/>
		<circle class="st3" cx="660" cy="858.6" r="6.7"/>
		<circle class="st3" cx="698.3" cy="854.5" r="6.7"/>
		<circle class="st3" cx="736.5" cy="850.5" r="6.7"/>
		<circle class="st3" cx="774.8" cy="846.5" r="6.7"/>
		<circle class="st3" cx="813.1" cy="842.5" r="6.7"/>
		<circle class="st3" cx="851.3" cy="838.4" r="6.7"/>
		<circle class="st3" cx="889.6" cy="834.4" r="6.7"/>
		<circle class="st3" cx="927.9" cy="830.4" r="6.7"/>
		<circle class="st3" cx="966.1" cy="826.4" r="6.7"/>
		<circle class="st3" cx="1004.4" cy="822.3" r="6.7"/>
		<circle class="st3" cx="1042.6" cy="818.3" r="6.7"/>
		<circle class="st3" cx="587.5" cy="904.9" r="6.7"/>
		<circle class="st3" cx="625.8" cy="900.9" r="6.7"/>
		<circle class="st3" cx="664" cy="896.8" r="6.7"/>
		<circle class="st3" cx="702.3" cy="892.8" r="6.7"/>
		<circle class="st3" cx="740.6" cy="888.8" r="6.7"/>
		<circle class="st3" cx="778.8" cy="884.8" r="6.7"/>
		<circle class="st3" cx="817.1" cy="880.7" r="6.7"/>
		<circle class="st3" cx="855.4" cy="876.7" r="6.7"/>
		<circle class="st3" cx="893.6" cy="872.7" r="6.7"/>
		<circle class="st3" cx="931.9" cy="868.7" r="6.7"/>
		<circle class="st3" cx="970.1" cy="864.6" r="6.7"/>
		<circle class="st3" cx="1008.4" cy="860.6" r="6.7"/>
		<circle class="st3" cx="1046.7" cy="856.6" r="6.7"/>
		<circle class="st3" cx="591.5" cy="943.1" r="6.7"/>
		<circle class="st3" cx="629.8" cy="939.1" r="6.7"/>
		<circle class="st3" cx="668.1" cy="935.1" r="6.7"/>
		<circle class="st3" cx="706.3" cy="931.1" r="6.7"/>
		<circle class="st3" cx="744.6" cy="927" r="6.7"/>
		<circle class="st3" cx="782.8" cy="923" r="6.7"/>
		<circle class="st3" cx="821.1" cy="919" r="6.7"/>
		<circle class="st3" cx="859.4" cy="915" r="6.7"/>
		<circle class="st3" cx="897.6" cy="910.9" r="6.7"/>
		<circle class="st3" cx="935.9" cy="906.9" r="6.7"/>
		<circle class="st3" cx="974.2" cy="902.9" r="6.7"/>
		<circle class="st3" cx="1012.4" cy="898.9" r="6.7"/>
		<circle class="st3" cx="1050.7" cy="894.8" r="6.7"/>
		<circle class="st3" cx="595.5" cy="981.4" r="6.7"/>
		<circle class="st3" cx="633.8" cy="977.4" r="6.7"/>
		<circle class="st3" cx="672.1" cy="973.4" r="6.7"/>
		<circle class="st3" cx="710.3" cy="969.3" r="6.7"/>
		<circle class="st3" cx="748.6" cy="965.3" r="6.7"/>
		<circle class="st3" cx="786.9" cy="961.3" r="6.7"/>
		<circle class="st3" cx="825.1" cy="957.3" r="6.7"/>
		<circle class="st3" cx="863.4" cy="953.2" r="6.7"/>
		<circle class="st3" cx="901.7" cy="949.2" r="6.7"/>
		<circle class="st3" cx="939.9" cy="945.2" r="6.7"/>
		<circle class="st3" cx="978.2" cy="941.2" r="6.7"/>
		<circle class="st3" cx="1016.5" cy="937.1" r="6.7"/>
		<circle class="st3" cx="1054.7" cy="933.1" r="6.7"/>
		<circle class="st3" cx="599.6" cy="1019.7" r="6.7"/>
		<circle class="st3" cx="637.8" cy="1015.6" r="6.7"/>
		<circle class="st3" cx="676.1" cy="1011.6" r="6.7"/>
		<circle class="st3" cx="714.4" cy="1007.6" r="6.7"/>
		<circle class="st3" cx="752.6" cy="1003.6" r="6.7"/>
		<circle class="st3" cx="790.9" cy="999.5" r="6.7"/>
		<circle class="st3" cx="829.2" cy="995.5" r="6.7"/>
		<circle class="st3" cx="867.4" cy="991.5" r="6.7"/>
		<circle class="st3" cx="905.7" cy="987.5" r="6.7"/>
		<circle class="st3" cx="944" cy="983.4" r="6.7"/>
		<circle class="st3" cx="982.2" cy="979.4" r="6.7"/>
		<circle class="st3" cx="1020.5" cy="975.4" r="6.7"/>
		<circle class="st3" cx="1058.7" cy="971.4" r="6.7"/>
		<circle class="st3" cx="603.6" cy="1057.9" r="6.7"/>
		<circle class="st3" cx="641.9" cy="1053.9" r="6.7"/>
		<circle class="st3" cx="680.1" cy="1049.9" r="6.7"/>
		<circle class="st3" cx="718.4" cy="1045.9" r="6.7"/>
		<circle class="st3" cx="756.7" cy="1041.8" r="6.7"/>
		<circle class="st3" cx="794.9" cy="1037.8" r="6.7"/>
		<circle class="st3" cx="833.2" cy="1033.8" r="6.7"/>
		<circle class="st3" cx="871.4" cy="1029.8" r="6.7"/>
		<circle class="st3" cx="909.7" cy="1025.7" r="6.7"/>
		<circle class="st3" cx="948" cy="1021.7" r="6.7"/>
		<circle class="st3" cx="986.2" cy="1017.7" r="6.7"/>
		<circle class="st3" cx="1024.5" cy="1013.7" r="6.7"/>
		<circle class="st3" cx="1062.8" cy="1009.6" r="6.7"/>
		<circle class="st3" cx="607.6" cy="1096.2" r="6.7"/>
		<circle class="st3" cx="645.9" cy="1092.2" r="6.7"/>
		<circle class="st3" cx="684.2" cy="1088.1" r="6.7"/>
		<circle class="st3" cx="722.4" cy="1084.1" r="6.7"/>
		<circle class="st3" cx="760.7" cy="1080.1" r="6.7"/>
		<circle class="st3" cx="798.9" cy="1076.1" r="6.7"/>
		<circle class="st3" cx="837.2" cy="1072.1" r="6.7"/>
		<circle class="st3" cx="875.5" cy="1068" r="6.7"/>
		<circle class="st3" cx="913.7" cy="1064" r="6.7"/>
		<circle class="st3" cx="952" cy="1060" r="6.7"/>
		<circle class="st3" cx="990.3" cy="1056" r="6.7"/>
		<circle class="st3" cx="1028.5" cy="1051.9" r="6.7"/>
		<circle class="st3" cx="1066.8" cy="1047.9" r="6.7"/>
	</g>
	<g class="st2">
		<circle class="st3" cx="270.5" cy="110.2" r="9.4"/>
		<circle class="st3" cx="323.9" cy="104.4" r="9.4"/>
		<circle class="st3" cx="377.3" cy="98.5" r="9.4"/>
		<circle class="st3" cx="430.8" cy="92.7" r="9.4"/>
		<circle class="st3" cx="484.2" cy="86.8" r="9.4"/>
		<circle class="st3" cx="537.6" cy="81" r="9.4"/>
		<circle class="st3" cx="591.1" cy="75.1" r="9.4"/>
		<circle class="st3" cx="644.5" cy="69.3" r="9.4"/>
		<circle class="st3" cx="697.9" cy="63.5" r="9.4"/>
		<circle class="st3" cx="751.4" cy="57.6" r="9.4"/>
		<circle class="st3" cx="276.3" cy="163.6" r="9.4"/>
		<circle class="st3" cx="329.8" cy="157.8" r="9.4"/>
		<circle class="st3" cx="383.2" cy="151.9" r="9.4"/>
		<circle class="st3" cx="436.6" cy="146.1" r="9.4"/>
		<circle class="st3" cx="490" cy="140.3" r="9.4"/>
		<circle class="st3" cx="543.5" cy="134.4" r="9.4"/>
		<circle class="st3" cx="596.9" cy="128.6" r="9.4"/>
		<circle class="st3" cx="650.3" cy="122.7" r="9.4"/>
		<circle class="st3" cx="703.8" cy="116.9" r="9.4"/>
		<circle class="st3" cx="757.2" cy="111" r="9.4"/>
		<circle class="st3" cx="282.2" cy="217.1" r="9.4"/>
		<circle class="st3" cx="335.6" cy="211.2" r="9.4"/>
		<circle class="st3" cx="389" cy="205.4" r="9.4"/>
		<circle class="st3" cx="442.5" cy="199.5" r="9.4"/>
		<circle class="st3" cx="495.9" cy="193.7" r="9.4"/>
		<circle class="st3" cx="549.3" cy="187.8" r="9.4"/>
		<circle class="st3" cx="602.8" cy="182" r="9.4"/>
		<circle class="st3" cx="656.2" cy="176.2" r="9.4"/>
		<circle class="st3" cx="709.6" cy="170.3" r="9.4"/>
		<circle class="st3" cx="763" cy="164.5" r="9.4"/>
		<circle class="st3" cx="288" cy="270.5" r="9.4"/>
		<circle class="st3" cx="341.4" cy="264.7" r="9.4"/>
		<circle class="st3" cx="394.9" cy="258.8" r="9.4"/>
		<circle class="st3" cx="448.3" cy="253" r="9.4"/>
		<circle class="st3" cx="501.7" cy="247.1" r="9.4"/>
		<circle class="st3" cx="555.2" cy="241.3" r="9.4"/>
		<circle class="st3" cx="608.6" cy="235.4" r="9.4"/>
		<circle class="st3" cx="662" cy="229.6" r="9.4"/>
		<circle class="st3" cx="715.5" cy="223.7" r="9.4"/>
		<circle class="st3" cx="768.9" cy="217.9" r="9.4"/>
		<circle class="st3" cx="293.9" cy="323.9" r="9.4"/>
		<circle class="st3" cx="347.3" cy="318.1" r="9.4"/>
		<circle class="st3" cx="400.7" cy="312.2" r="9.4"/>
		<circle class="st3" cx="454.1" cy="306.4" r="9.4"/>
		<circle class="st3" cx="507.6" cy="300.6" r="9.4"/>
		<circle class="st3" cx="561" cy="294.7" r="9.4"/>
		<circle class="st3" cx="614.4" cy="288.9" r="9.4"/>
		<circle class="st3" cx="667.9" cy="283" r="9.4"/>
		<circle class="st3" cx="721.3" cy="277.2" r="9.4"/>
		<circle class="st3" cx="774.7" cy="271.3" r="9.4"/>
		<circle class="st3" cx="299.7" cy="377.4" r="9.4"/>
		<circle class="st3" cx="353.1" cy="371.5" r="9.4"/>
		<circle class="st3" cx="406.6" cy="365.7" r="9.4"/>
		<circle class="st3" cx="460" cy="359.8" r="9.4"/>
		<circle class="st3" cx="513.4" cy="354" r="9.4"/>
		<circle class="st3" cx="566.9" cy="348.1" r="9.4"/>
		<circle class="st3" cx="620.3" cy="342.3" r="9.4"/>
		<circle class="st3" cx="673.7" cy="336.4" r="9.4"/>
		<circle class="st3" cx="727.1" cy="330.6" r="9.4"/>
		<circle class="st3" cx="780.6" cy="324.8" r="9.4"/>
		<circle class="st3" cx="305.5" cy="430.8" r="9.4"/>
		<circle class="st3" cx="359" cy="424.9" r="9.4"/>
		<circle class="st3" cx="412.4" cy="419.1" r="9.4"/>
		<circle class="st3" cx="465.8" cy="413.3" r="9.4"/>
		<circle class="st3" cx="519.3" cy="407.4" r="9.4"/>
		<circle class="st3" cx="572.7" cy="401.6" r="9.4"/>
		<circle class="st3" cx="626.1" cy="395.7" r="9.4"/>
		<circle class="st3" cx="679.6" cy="389.9" r="9.4"/>
		<circle class="st3" cx="733" cy="384" r="9.4"/>
		<circle class="st3" cx="786.4" cy="378.2" r="9.4"/>
		<circle class="st3" cx="311.4" cy="484.2" r="9.4"/>
		<circle class="st3" cx="364.8" cy="478.4" r="9.4"/>
		<circle class="st3" cx="418.3" cy="472.5" r="9.4"/>
		<circle class="st3" cx="471.7" cy="466.7" r="9.4"/>
		<circle class="st3" cx="525.1" cy="460.8" r="9.4"/>
		<circle class="st3" cx="578.5" cy="455" r="9.4"/>
		<circle class="st3" cx="632" cy="449.2" r="9.4"/>
		<circle class="st3" cx="685.4" cy="443.3" r="9.4"/>
		<circle class="st3" cx="738.8" cy="437.5" r="9.4"/>
		<circle class="st3" cx="792.3" cy="431.6" r="9.4"/>
		<circle class="st3" cx="317.2" cy="537.6" r="9.4"/>
		<circle class="st3" cx="370.7" cy="531.8" r="9.4"/>
		<circle class="st3" cx="424.1" cy="526" r="9.4"/>
		<circle class="st3" cx="477.5" cy="520.1" r="9.4"/>
		<circle class="st3" cx="531" cy="514.3" r="9.4"/>
		<circle class="st3" cx="584.4" cy="508.4" r="9.4"/>
		<circle class="st3" cx="637.8" cy="502.6" r="9.4"/>
		<circle class="st3" cx="691.2" cy="496.7" r="9.4"/>
		<circle class="st3" cx="744.7" cy="490.9" r="9.4"/>
		<circle class="st3" cx="798.1" cy="485" r="9.4"/>
		<circle class="st3" cx="323.1" cy="591.1" r="9.4"/>
		<circle class="st3" cx="376.5" cy="585.2" r="9.4"/>
		<circle class="st3" cx="429.9" cy="579.4" r="9.4"/>
		<circle class="st3" cx="483.4" cy="573.5" r="9.4"/>
		<circle class="st3" cx="536.8" cy="567.7" r="9.4"/>
		<circle class="st3" cx="590.2" cy="561.9" r="9.4"/>
		<circle class="st3" cx="643.7" cy="556" r="9.4"/>
		<circle class="st3" cx="697.1" cy="550.2" r="9.4"/>
		<circle class="st3" cx="750.5" cy="544.3" r="9.4"/>
		<circle class="st3" cx="804" cy="538.5" r="9.4"/>
		<circle class="st3" cx="328.9" cy="644.5" r="9.4"/>
		<circle class="st3" cx="382.4" cy="638.7" r="9.4"/>
		<circle class="st3" cx="435.8" cy="632.8" r="9.4"/>
		<circle class="st3" cx="489.2" cy="627" r="9.4"/>
		<circle class="st3" cx="542.6" cy="621.1" r="9.4"/>
		<circle class="st3" cx="596.1" cy="615.3" r="9.4"/>
		<circle class="st3" cx="649.5" cy="609.4" r="9.4"/>
		<circle class="st3" cx="702.9" cy="603.6" r="9.4"/>
		<circle class="st3" cx="756.4" cy="597.8" r="9.4"/>
		<circle class="st3" cx="809.8" cy="591.9" r="9.4"/>
	</g>
</g>
<g id="Layer_1" class="st1">
	<g class="st2">
		
			<image style="overflow:visible;opacity:0.1;" width="615" height="1035" xlink:href="8C222BF84C76EAEF.png"  transform="matrix(1 0 0 1 354 55)">
		</image>
		<g>
			<g>
				<g>
					<g>
						<g>
							<path class="st4" d="M666.5,127.5c0.4,3.9-2.4,7.3-6.3,7.7c-3.9,0.4-7.3-2.4-7.7-6.2c-0.4-3.9,2.4-7.3,6.3-7.7
								C662.7,120.9,666.1,123.7,666.5,127.5z"/>
						</g>
						<path class="st4" d="M635.2,134.5l-48.8,5.2c-2,0.2-3.8-1.2-4-3.2l-0.1-0.6c-0.2-2,1.2-3.8,3.2-4l48.8-5.2
							c2-0.2,3.8,1.2,4,3.2l0.1,0.6C638.6,132.5,637.1,134.3,635.2,134.5L635.2,134.5z"/>
					</g>
				</g>
				<g>
					<path class="st4" d="M868.4,1007.5L550,1041.4c-31.7,3.4-60.2-19.7-63.5-51.3L402.7,201c-3.4-31.7,19.7-60.1,51.3-63.5
						l318.4-33.8c31.7-3.4,60.2,19.7,63.5,51.3L919.8,944C923.1,975.7,900.1,1004.2,868.4,1007.5L868.4,1007.5z"/>
					<path class="st5" d="M775.7,118.5l-321.8,34.2c-22.2,2.4-38.5,22.5-36.1,44.7l84.3,793.1c2.4,22.2,22.5,38.5,44.7,36.1
						l321.8-34.2c22.2-2.4,38.5-22.5,36.1-44.7l-84.3-793.1C818,132.4,797.9,116.1,775.7,118.5z"/>
					
						<linearGradient id="SVGID_1_" gradientUnits="userSpaceOnUse" x1="480.3503" y1="985.7242" x2="941.0193" y2="187.8219" gradientTransform="matrix(0.9997 -2.536622e-02 2.536622e-02 0.9997 -64.1166 3.9411)">
						<stop  offset="1.241987e-03" style="stop-color:#506BDA"/>
						<stop  offset="4.508700e-02" style="stop-color:#5075D9"/>
						<stop  offset="0.1976" style="stop-color:#5292D7"/>
						<stop  offset="0.3604" style="stop-color:#53A8D5"/>
						<stop  offset="0.536" style="stop-color:#53B9D4"/>
						<stop  offset="0.7337" style="stop-color:#54C2D3"/>
						<stop  offset="1" style="stop-color:#54C5D3"/>
					</linearGradient>
					<path class="st6" d="M775.7,118.5l-42.5,4.5c-2.5,0.3-4.4,2.1-4.9,4.4l0.6,5.7c1.3,12.3-7.7,23.5-20.1,24.8l-181,19.2
						c-12.3,1.3-23.5-7.7-24.8-20.1l-0.4-3.9c-0.3-3.1-3.1-5.3-6.2-5l-42.4,4.5c-22.2,2.4-38.5,22.5-36.1,44.7l84.3,793.1
						c2.4,22.2,22.5,38.5,44.7,36.1l321.8-34.2c22.2-2.4,38.5-22.5,36.1-44.7l-84.3-793.1C818,132.4,797.9,116.1,775.7,118.5z"/>
					<g>
						<g>
							<g>
								<path class="st4" d="M658.5,146.5c0.4,3.9-2.4,7.3-6.3,7.7c-3.9,0.4-7.3-2.4-7.7-6.2c-0.4-3.9,2.4-7.3,6.3-7.7
									C654.7,139.9,658.1,142.7,658.5,146.5z"/>
							</g>
							<path class="st4" d="M627.2,153.5l-48.8,5.2c-2,0.2-3.8-1.2-4-3.2l-0.1-0.6c-0.2-2,1.2-3.8,3.2-4l48.8-5.2
								c2-0.2,3.8,1.2,4,3.2l0.1,0.6C630.6,151.5,629.1,153.3,627.2,153.5L627.2,153.5z"/>
						</g>
					</g>
				</g>
				<g>
					<g>
						<path class="st7" d="M518.7,518.4l-4.2-40.4l1.4-0.2l4.1,39.1l20-2.1l0.1,1.3L518.7,518.4z"/>
						<path class="st7" d="M552.8,485.3c6.8-0.7,11.9,2.5,14.5,7.6l-0.9-8.4l1.4-0.1l3,28.6l-1.4,0.1l-0.9-8.3
							c-1.5,5.8-6,9.7-12.5,10.4c-9,0.9-15.4-5-16.2-13.4C539,493.6,543.5,486.3,552.8,485.3z M555.9,513.9c7.7-0.8,12.9-7,12-15.1
							c-0.8-7.6-6.8-13.1-15-12.2c-8.4,0.9-12.5,7.6-11.7,15C542.1,509.3,547.8,514.7,555.9,513.9z"/>
						<path class="st7" d="M582.6,511.7l-1.4,0.1l-3-28.6l1.4-0.1l0.7,7c1.8-6,7-8.4,10.1-8.8c5.8-0.6,12.6,1.3,13.6,11.4l1.7,16.6
							l-1.4,0.1l-1.7-16.6c-1-9.1-6.9-10.8-12.1-10.2c-3.6,0.4-10.4,3.9-9.6,13.7L582.6,511.7z"/>
						<path class="st7" d="M617.8,517c3.9,2.3,7.7,2.6,11.8,2.2c7.8-0.8,12.5-6.6,11.7-14.3l-0.8-7.7c-1.5,5.8-6,9.7-12.5,10.4
							c-9,0.9-15.4-5-16.2-13.4c-0.9-8.1,3.7-15.5,13-16.4c6.8-0.7,11.9,2.5,14.5,7.6l-0.9-8.4l1.4-0.1l2.9,28
							c0.9,8.4-4.2,14.8-13,15.7c-4.4,0.5-8.3,0.1-12.4-2.2L617.8,517z M627.9,506.3c7.7-0.8,12.9-7,12-15.1
							c-0.8-7.6-6.8-13.1-15-12.2c-8.4,0.9-12.5,7.6-11.7,15C614.1,501.7,619.8,507.2,627.9,506.3z"/>
						<path class="st7" d="M655.6,504.1l-1.4,0.2l-4.2-40.4l1.4-0.2L655.6,504.1z"/>
						<path class="st7" d="M668.3,502.7l-1.4,0.1l-3-28.6l1.4-0.1l0.7,7c1.8-6,7-8.4,10.1-8.8c5.8-0.6,12.6,1.3,13.6,11.4l1.7,16.6
							l-1.4,0.1l-1.7-16.6c-1-9.1-6.9-10.8-12.1-10.2c-3.6,0.4-10.4,3.9-9.6,13.7L668.3,502.7z"/>
						<path class="st7" d="M702.8,499.1l-1.4,0.1l-3-28.6l1.4-0.1l0.7,7c1.8-6,7-8.4,10.1-8.8c5.8-0.6,12.6,1.3,13.6,11.4l1.7,16.6
							l-1.4,0.1l-1.7-16.6c-1-9.1-6.9-10.8-12.1-10.2c-3.6,0.4-10.4,3.9-9.6,13.7L702.8,499.1z"/>
						<path class="st7" d="M765.5,463.6l13.8,25.8l8.2-28.1l1.5-0.2l-8.8,29.8l-1.4,0.2L764,463.8L765.5,463.6z"/>
					</g>
					<g>
						<path class="st8" d="M763.8,495.9c-0.1,0-0.2,0-0.4,0l-9.3-2.4c-0.5-0.1-0.9-0.7-0.7-1.2c0.1-0.5,0.7-0.9,1.2-0.7l7.1,1.9
							l-3-6c-0.2-0.5,0-1.1,0.4-1.3c0.5-0.2,1.1,0,1.3,0.4l4,7.9c0.2,0.4,0.1,0.8-0.1,1.1C764.3,495.7,764,495.9,763.8,495.9z"/>
						<path class="st8" d="M754.1,491.3c-1.7,1.1-3.7,1.9-5.9,2.1c-7.3,0.8-13.9-4.6-14.6-11.9c-0.8-7.3,4.6-14.1,11.8-14.9
							c7.2-0.8,14,4.8,14.8,12.1c0.3,2.9-0.3,5.6-1.7,7.9l1,2.1c2-2.9,3-6.5,2.7-10.2c-0.9-8.3-8.6-14.6-17-13.7
							c-8.4,0.9-14.5,8.5-13.6,16.9c0.9,8.3,8.4,14.4,16.8,13.5c3.1-0.3,5.9-1.5,8.1-3.3L754.1,491.3z"/>
					</g>
				</g>
				<g>
					<path class="st9" d="M711.3,607.8l-78,8.4c-12.4,1.3-23.5-7.6-24.8-20v0c-1.3-12.4,7.6-23.5,20-24.8l78-8.4
						c12.4-1.3,23.5,7.6,24.8,20l0,0C732.6,595.3,723.7,606.4,711.3,607.8z"/>
					<text transform="matrix(0.9942 -0.1072 0.1072 0.9942 646.8737 597.0671)" class="st4 st10 st11">Begin</text>
				</g>
			</g>
		</g>
	</g>
</g>
</svg>
