<?xml version="1.0" encoding="utf-8"?>
<!-- Generator: Adobe Illustrator 23.0.4, SVG Export Plug-In . SVG Version: 6.00 Build 0)  -->
<svg version="1.1" xmlns="http://www.w3.org/2000/svg" xmlns:xlink="http://www.w3.org/1999/xlink" x="0px" y="0px"
	 viewBox="0 0 1919 1252" style="enable-background:new 0 0 1919 1252;" xml:space="preserve">
<style type="text/css">
	.st0{display:none;}
	.st1{display:inline;fill:#F68C1F;}
	.st2{fill:#F68C1F;}
</style>
<g id="Layer_1" class="st0">
	<path class="st1" d="M-0.8,71.2C94.5,26.6,210.4-6.1,337,8c390.6,43.7,433.1,483.3,865,605c309.4,87.2,501.9-78,716.3,4.8
		L1918,1161c-115-151-632,104-1168-143c-273-121-596,4.8-751,64.1L-0.8,71.2z"/>
</g>
<g id="Layer_2">
	<path class="st2" d="M0,0c313,51,356,139,942,107c270-8,418.4,87.9,715,211c138.7,57.6,262,3,262,3v917c-47,19-305-49-496-126
		s-426-70-645-27s-764.9,48.9-778,35V0z"/>
</g>
<g id="Layer_3" class="st0">
	<path class="st1" d="M0,1118.3c-11-11.4,144-498.7,340-637.1c329-246.1,531.5-108.3,770.5-245.4C1809.9-165.4,1845,105.4,1919,152
		c0.5,0.7-0.5,959.4,0,958.7c-191.6,123.6-420.3-45.1-715,65.6c-258.3,97.1-224.5,202.3-551.5,435.9
		C423.3,1775.9,102.4,1820.6,0,1589.4C0.5,1588.7,0,1118.3,0,1118.3z"/>
</g>
</svg>
