<?xml version="1.0" encoding="utf-8"?>
<!-- Generator: Adobe Illustrator 23.0.4, SVG Export Plug-In . SVG Version: 6.00 Build 0)  -->
<svg version="1.1" id="Layer_1" xmlns="http://www.w3.org/2000/svg" xmlns:xlink="http://www.w3.org/1999/xlink" x="0px" y="0px"
	 width="1377px" height="1153px" viewBox="0 0 1377 1153" enable-background="new 0 0 1377 1153" xml:space="preserve">
<g>
	<linearGradient id="SVGID_1_" gradientUnits="userSpaceOnUse" x1="11.5312" y1="572.1426" x2="1377" y2="572.1426">
		<stop  offset="1.241987e-03" style="stop-color:#506BDA"/>
		<stop  offset="0.0451" style="stop-color:#5075D9"/>
		<stop  offset="0.1976" style="stop-color:#5292D7"/>
		<stop  offset="0.3604" style="stop-color:#53A8D5"/>
		<stop  offset="0.536" style="stop-color:#53B9D4"/>
		<stop  offset="0.7337" style="stop-color:#54C2D3"/>
		<stop  offset="1" style="stop-color:#54C5D3"/>
	</linearGradient>
	<path opacity="0.35" fill="url(#SVGID_1_)" d="M12.18,0c0,0-29.85,273.13,315.45,323.07S508.94,663,508.94,663s-102,124,12,256
		s290,206,400,220s197.35-2.4,253.15-19.15c55.79-16.75,147.12-93.22,202.91-198.51c-4.29,7.18,0-921.34,0-921.34H12.18z"/>
	<linearGradient id="SVGID_2_" gradientUnits="userSpaceOnUse" x1="748.9705" y1="0" x2="748.9705" y2="1108">
		<stop  offset="1.241987e-03" style="stop-color:#506BDA"/>
		<stop  offset="0.0451" style="stop-color:#5075D9"/>
		<stop  offset="0.1976" style="stop-color:#5292D7"/>
		<stop  offset="0.3604" style="stop-color:#53A8D5"/>
		<stop  offset="0.536" style="stop-color:#53B9D4"/>
		<stop  offset="0.7337" style="stop-color:#54C2D3"/>
		<stop  offset="1" style="stop-color:#54C5D3"/>
	</linearGradient>
	<path fill="url(#SVGID_2_)" d="M327.63,323.07C506.94,421,586.94,525,550.94,631s-90,210,24,342s310.64,135,368.58,135
		c57.94,0,143.78-2.39,199.57-19.14c55.79-16.75,178.11-62.22,233.91-167.52c-4.29,7.18,0-921.34,0-921.34H120.94
		C120.94,0,148.33,225.13,327.63,323.07z"/>
</g>
<g>
</g>
<g>
</g>
<g>
</g>
<g>
</g>
<g>
</g>
<g>
</g>
<g>
</g>
<g>
</g>
<g>
</g>
<g>
</g>
<g>
</g>
<g>
</g>
<g>
</g>
<g>
</g>
<g>
</g>
</svg>
