<?xml version="1.0" encoding="utf-8"?>
<!-- Generator: Adobe Illustrator 23.0.4, SVG Export Plug-In . SVG Version: 6.00 Build 0)  -->
<svg version="1.1" id="Layer_1" xmlns="http://www.w3.org/2000/svg" xmlns:xlink="http://www.w3.org/1999/xlink" x="0px" y="0px"
	 viewBox="0 0 1919 1783" style="enable-background:new 0 0 1919 1783;" xml:space="preserve">
<style type="text/css">
	.st0{display:none;}
	.st1{display:inline;fill:#F68C1F;}
	.st2{fill:#F68C1F;}
</style>
<g class="st0">
	<path class="st1" d="M-0.8,71.2C94.5,26.6,210.4-6.1,337,8c390.6,43.7,433.1,483.3,865,605c309.4,87.2,501.9-78,716.3,4.8
		L1918,1161c-115-151-632,104-1168-143c-273-121-596,4.8-751,64.1L-0.8,71.2z"/>
</g>
<g class="st0">
	<path class="st1" d="M0,0c313,51,356,139,942,107c270-8,418.4,87.9,715,211c138.7,57.6,262,3,262,3v917c-47,19-305-49-496-126
		s-426-70-645-27s-764.9,48.9-778,35V0z"/>
</g>
<g id="Layer_3">
	<path class="st2" d="M-0.2,1160.6c-7.5-7.7,97.7-338.5,230.8-432.4c223.3-167,360.8-73.5,523-166.6
		c474.7-272.3,576-133.7,548.8-56.9c-27.3,76.8,230.8,534.2-70.3,499c-301-35.2-215,121.1-415,196.2
		c-175.3,65.9-152.4,137.3-374.3,295.9C287.1,1607,69.3,1637.3-0.2,1480.4C0.2,1479.9-0.2,1160.6-0.2,1160.6z"/>
</g>
</svg>
